<?xml version="1.0" standalone="no"?><!DOCTYPE svg PUBLIC "-//W3C//DTD SVG 1.1//EN" "http://www.w3.org/Graphics/SVG/1.1/DTD/svg11.dtd"><svg t="1598431168599" class="icon" viewBox="0 0 1024 1024" version="1.1" xmlns="http://www.w3.org/2000/svg" p-id="1925" xmlns:xlink="http://www.w3.org/1999/xlink" width="48" height="48"><defs><style type="text/css"></style></defs><path d="M832 128H192a96.106667 96.106667 0 0 0-96 96v512C96 788.928 139.072 832 192 832h210.752l86.613333 86.613333a31.914667 31.914667 0 0 0 45.269334 0L621.226667 832H832c52.928 0 96-43.072 96-96v-512C928 171.072 884.928 128 832 128zM314.666667 522.666667c-26.453333 0-48-21.546667-48-48S288.213333 426.666667 314.666667 426.666667 362.666667 448.213333 362.666667 474.666667s-21.546667 48-48 48z m192 0c-26.453333 0-48-21.546667-48-48S480.213333 426.666667 506.666667 426.666667 554.666667 448.213333 554.666667 474.666667s-21.546667 48-48 48z m192 0c-26.453333 0-48-21.546667-48-48S672.213333 426.666667 698.666667 426.666667 746.666667 448.213333 746.666667 474.666667s-21.546667 48-48 48z" p-id="1926" fill="#707070"></path></svg>