<?xml version="1.0" standalone="no"?><!DOCTYPE svg PUBLIC "-//W3C//DTD SVG 1.1//EN" "http://www.w3.org/Graphics/SVG/1.1/DTD/svg11.dtd"><svg t="1598518557103" class="icon" viewBox="0 0 1024 1024" version="1.1" xmlns="http://www.w3.org/2000/svg" p-id="4811" xmlns:xlink="http://www.w3.org/1999/xlink" width="28" height="28"><defs><style type="text/css"></style></defs><path d="M875.768 245.084l-0.016-0.03-0.851-0.491a93.322 93.322 0 0 0-2.339-1.35L572.074 69.725c-15.394-11.082-34.283-17.614-54.7-17.614-20.415 0-39.301 6.53-54.694 17.607L169.783 238.823c-32.738 14.619-55.557 47.458-55.557 85.628v355.113l0.04 0.073c-0.025 0.887-0.04 1.777-0.04 2.671 0 35.536 19.777 66.453 48.923 82.348l304.463 175.782c14.422 9.052 31.478 14.292 49.763 14.292 18.295 0 35.36-5.247 49.788-14.309l308.953-178.37 0.256-0.463c26.304-16.602 43.779-45.919 43.779-79.323v-0.03l0.368-0.669V330.01c0.084-1.629 0.128-3.267 0.128-4.917 0-33.868-17.963-63.538-44.879-80.009z m-696.172 405.98c-0.014 0.627-0.047 1.251-0.047 1.881 0 2.712 0.139 5.392 0.407 8.034h-0.048c0.014 0.283 0.043 0.563 0.043 0.849 0 9.136-7.407 16.542-16.544 16.542s-16.544-7.405-16.544-16.542c0-0.203 0.023-0.401 0.031-0.602h-0.018V349.174l0.511-0.926a87.108 87.108 0 0 1-0.511-9.329c0-35.006 20.892-65.112 50.878-78.591l269.361-155.516a16.231 16.231 0 0 1 9.211-2.856c9.005 0 16.304 7.3 16.304 16.304 0 6.354-3.643 11.845-8.947 14.535a78.77 78.77 0 0 0-11.985 7.056L225.943 281.74c-27.342 12.289-46.394 39.742-46.394 71.662 0 2.876 0.165 5.711 0.466 8.506l-0.466 0.844v288.223l0.047 0.087z m658.581 95.159l-276.01 159.351h-0.825c-12.872 7.655-27.899 12.065-43.962 12.065s-31.091-4.41-43.962-12.065h-0.826L198.261 747.185c-5.466-2.721-9.23-8.349-9.23-14.869 0-9.177 7.44-16.616 16.618-16.616 2.97 0 5.751 0.789 8.163 2.152l0.016-0.031c0.246 0.168 0.496 0.327 0.744 0.492 0.206 0.131 0.408 0.264 0.608 0.403a78.266 78.266 0 0 0 2.669 1.683l0.266 0.483 258.42 149.199h0.755c11.736 6.979 25.436 10.999 40.081 10.999 14.645 0 28.346-4.02 40.082-10.999h0.754L817.985 720.1l0.313-0.568c0.799-0.5 1.577-1.029 2.355-1.559a16.577 16.577 0 0 1 9.726-3.15c9.209 0 16.672 7.462 16.672 16.669 0 6.388-3.597 11.931-8.875 14.729z m49.706-405.702v320.703h-0.013l0.002 0.046c0 9.11-7.389 16.498-16.5 16.498-9.112 0-16.5-7.388-16.5-16.498 0-0.099 0.013-0.194 0.015-0.293l-0.101-0.001c0.269-2.641 0.409-5.319 0.409-8.032 0-0.093-0.007-0.184-0.007-0.276l0.007-0.013V354.863l-0.035-0.064c0.008-0.466 0.035-0.927 0.035-1.394 0-31.923-19.053-59.377-46.396-71.664L563.056 139.862c-3.15-2.258-6.489-4.264-9.963-6.042-5.904-2.412-10.082-8.31-10.082-15.217 0-9.052 7.168-16.389 16.007-16.389 3.27 0 6.309 1.009 8.844 2.732l0.004-0.006 269.14 155.387c29.986 13.477 50.878 43.585 50.878 78.592 0 0.514-0.03 1.02-0.039 1.531l0.038 0.07z" fill="#e0b949" p-id="4812"></path></svg>