<?xml version="1.0" standalone="no"?><!DOCTYPE svg PUBLIC "-//W3C//DTD SVG 1.1//EN" "http://www.w3.org/Graphics/SVG/1.1/DTD/svg11.dtd"><svg t="1598670893278" class="icon" viewBox="0 0 1024 1024" version="1.1" xmlns="http://www.w3.org/2000/svg" p-id="2541" width="128" height="128" xmlns:xlink="http://www.w3.org/1999/xlink"><defs><style type="text/css"></style></defs><path d="M45.253977 1.128947c56.314222 5.119475 110.068707 9.727002 163.823192 14.846476 15.870372 1.535842 29.692954 9.215055 40.443851 22.013742 84.471333 98.293915 169.454614 196.58783 253.925947 295.393692 8.19116 9.215055 11.774792 9.215055 19.454004 0l251.878157-293.345902c11.262844-13.310634 25.085426-22.525689 42.491641-24.061532 54.266432-5.119475 108.532865-9.727002 162.799296-15.358424 9.727002-1.023895 11.262844 2.04779 10.23895 10.750897-5.119475 55.290327-10.238949 110.580654-14.846477 165.359034-1.535842 18.942057-10.238949 33.788533-23.549584 46.58722-97.27002 89.590808-194.54004 179.693563-292.322008 269.284372-8.19116 7.679212-9.215055 11.262844-1.535842 19.965951 23.037636 25.085426 44.53943 51.706695 67.065119 77.304069 5.631422 6.14337 6.655317 9.727002 0 16.382319-35.324376 35.324376-69.624856 71.672646-104.437285 108.020917-5.631422 6.14337-9.215055 5.631422-14.846476 0-28.157111-26.621269-57.338117-52.73059-85.495228-79.863806-6.14337-5.631422-9.215055-5.119475-14.846477 0-27.645164 26.109321-56.314222 51.706695-83.447439 77.816016-7.679212 7.679212-11.774792 6.655317-18.942056-1.023895-33.788533-35.836323-68.089014-71.160699-102.389495-105.973127-5.631422-5.631422-6.14337-9.215055-0.511947-15.358424 23.037636-26.109321 45.563325-53.242537 69.112909-79.351859 7.167265-7.679212 5.631422-11.262844-1.535843-17.918161-97.27002-89.590808-194.54004-179.693563-292.322008-269.284372-14.846477-13.822582-23.549584-29.692954-25.085426-50.170852-4.607527-52.73059-9.727002-106.997022-14.846477-161.263454C34.50308 1.128947 38.086713-1.942738 45.253977 1.128947zM399.52163 894.989237c-12.798687 0-23.037636-5.631422-31.740744-14.846477-18.430109-19.454004-37.372166-38.396061-55.802274-57.850065-5.119475-5.119475-8.19116-6.14337-13.822582-0.511947-41.467745 43.515535-82.935491 86.519123-124.915184 129.522711-5.119475 5.119475-5.119475 8.19116 0 12.798687 6.14337 5.631422 11.774792 11.262844 16.894267 17.406214 9.215055 10.750897 8.703107 22.525689-1.535843 33.276585-10.238949 10.750897-23.037636 12.286739-33.276586 2.04779-49.658905-50.6828-98.805863-101.877547-147.95282-153.072294-10.238949-10.750897-9.727002-23.037636 1.023895-34.300481 10.238949-10.750897 22.525689-11.262844 33.276586-1.535843l1.023895 1.023895c7.679212 6.655317 13.310634 20.989846 22.525689 19.454004 8.19116-1.023895 14.846477-13.310634 22.013741-20.989846 35.836323-36.860218 71.160699-74.232384 106.997022-110.580655 6.14337-6.14337 6.655317-9.727002 0-15.870371-18.942057-18.430109-36.860218-37.372166-55.290327-56.82617-19.965951-20.989846-19.965951-46.075273 0-67.577066 3.583632-3.583632 6.655317-7.167265 10.23895-10.750897 20.989846-20.989846 45.051378-20.989846 66.041224 0.511947 75.256279 77.816016 150.512557 155.632032 225.256889 233.448048 21.501794 22.013741 20.989846 47.099168 0 69.112909-18.942057 22.013741-25.597374 26.109321-40.955798 26.109322zM899.694312 610.858388c0 13.310634-4.607527 24.061531-13.822582 33.276586-18.942057 18.942057-36.860218 38.908008-55.802275 57.850065-5.631422 5.631422-6.655317 8.703107-0.511947 14.846476 41.467745 42.49164 82.935491 85.495228 123.891289 128.498817 5.631422 5.631422 8.703107 5.631422 13.822581-0.511948 5.119475-6.14337 10.238949-11.262844 15.870372-16.894267 10.238949-9.215055 22.013741-8.703107 32.252691 1.023895 11.262844 10.750897 12.798687 23.549584 2.559737 34.300481-49.146958 51.706695-98.805863 102.901442-148.464767 153.584242-9.727002 10.238949-22.525689 8.703107-32.764638-2.559737-9.727002-10.750897-10.238949-22.525689-1.023895-33.276586 1.023895-1.535842 2.559737-2.559737 3.583632-4.09558 18.942057-19.965951 18.942057-19.965951 0.511947-38.908008-36.860218-37.884113-73.720436-75.768226-109.556759-114.164286-7.679212-8.19116-11.774792-7.167265-18.430109 0.511947-15.870372 17.406214-32.764638 34.300481-49.146958 51.194747-25.085426 26.109321-47.611115 26.109321-72.696541 0.511948l-6.655317-6.655317c-20.477899-21.501794-20.477899-47.099168 0-68.089014 54.266432-56.314222 108.532865-112.628444 162.799297-168.430719 20.989846-22.013741 41.979693-44.027483 63.481486-65.529277 20.477899-21.501794 45.051378-20.989846 66.041225 0 19.454004 19.965951 24.061531 28.157111 24.061531 43.515535z" p-id="2542" fill="#bfbfbf"></path></svg>