<?xml version="1.0" standalone="no"?><!DOCTYPE svg PUBLIC "-//W3C//DTD SVG 1.1//EN" "http://www.w3.org/Graphics/SVG/1.1/DTD/svg11.dtd"><svg t="1600088458396" class="icon" viewBox="0 0 1068 1024" version="1.1" xmlns="http://www.w3.org/2000/svg" p-id="5773" width="33.375" height="32" xmlns:xlink="http://www.w3.org/1999/xlink"><defs><style type="text/css"></style></defs><path d="M979.477043 1023.999H89.042913A89.042913 89.042913 0 0 1 0 934.956087V756.869261a89.042913 89.042913 0 0 1 89.042913-89.043913h222.609783v133.564869H756.869261V667.825348h222.607782a89.042913 89.042913 0 0 1 89.043914 89.043913v178.086826A89.042913 89.042913 0 0 1 979.477043 1023.999zM667.825348 845.912174h-267.129739v89.043913h267.129739v-89.043913z m178.086826-178.086826V222.609783H222.608783v445.216565h-44.521957V178.086826h712.347304v489.739522h-44.521956zM445.216565 267.129739v89.043913h-89.042913V267.129739h89.042913z m44.521957 267.129739H311.651696V400.696609H489.739522V534.259478z m267.129739 0H534.261478v-44.519956H756.869261v44.519956zM534.261478 311.652696H756.869261v44.521956H534.259478v-44.521956zM756.869261 445.216565H534.259478v-44.520956h222.609783v44.520956z m0 178.086826H311.651696v-44.520956H756.869261v44.520956z" p-id="5774" fill="#dbdbdb"></path><path d="M801.390217 222.608783v-89.043913h-534.259478v89.043913h-44.521956V89.042913h623.303391V222.609783h-44.521957z" p-id="5775" fill="#dbdbdb"></path><path d="M756.869261 133.56487V44.521957H311.651696v89.042913H267.129739V0h534.260478v133.56487H756.869261z" p-id="5776" fill="#dbdbdb"></path></svg>