<?xml version="1.0" standalone="no"?><!DOCTYPE svg PUBLIC "-//W3C//DTD SVG 1.1//EN" "http://www.w3.org/Graphics/SVG/1.1/DTD/svg11.dtd"><svg t="1599973191007" class="icon" viewBox="0 0 1024 1024" version="1.1" xmlns="http://www.w3.org/2000/svg" p-id="2725" width="48" height="48" xmlns:xlink="http://www.w3.org/1999/xlink"><defs><style type="text/css"></style></defs><path d="M512 954.88c-244.224 0-442.88-198.656-442.88-442.88 0-98.304 31.232-190.976 91.136-268.8 8.704-11.264 24.576-13.312 35.328-4.608 11.264 8.704 13.312 24.576 4.608 35.328C147.456 343.04 119.808 424.96 119.808 512c0 216.576 176.128 392.192 392.192 392.192s392.192-176.128 392.192-392.192-175.616-392.192-392.192-392.192c-13.824 0-25.088-11.264-25.088-25.088s11.264-25.088 25.088-25.088c244.224 0 442.88 198.656 442.88 442.88s-198.656 442.368-442.88 442.368z" p-id="2726" fill="#21acff"></path><path d="M269.824 197.12c-7.68 0-15.872-3.584-20.48-10.752-8.192-11.264-5.632-27.136 6.144-35.328C286.72 129.024 320.512 110.592 356.352 97.28c13.312-5.12 27.648 1.536 32.768 14.848s-1.536 27.648-14.848 32.768c-31.744 11.776-61.44 27.648-89.088 47.616-5.12 3.072-10.24 4.608-15.36 4.608z" p-id="2727" fill="#21acff"></path><path d="M426.496 307.2c18.944 0 34.304 15.36 34.304 34.304v341.504a34.304 34.304 0 0 1-68.608 0V341.504c0.512-18.944 15.872-34.304 34.304-34.304z m171.008 0c18.944 0 34.304 15.36 34.304 34.304v341.504a34.304 34.304 0 0 1-68.608 0V341.504c0-18.944 15.36-34.304 34.304-34.304z" p-id="2728" fill="#21acff"></path></svg>