<?xml version="1.0" standalone="no"?><!DOCTYPE svg PUBLIC "-//W3C//DTD SVG 1.1//EN" "http://www.w3.org/Graphics/SVG/1.1/DTD/svg11.dtd"><svg t="1600088291007" class="icon" viewBox="0 0 1024 1024" version="1.1" xmlns="http://www.w3.org/2000/svg" p-id="4704" xmlns:xlink="http://www.w3.org/1999/xlink" width="128" height="128"><defs><style type="text/css"></style></defs><path d="M73.951 400.945a66.61 66.61 0 0 0 91.247 14.6 67.066 67.066 0 0 0 17.793-85.772L469.961 115.8a66.61 66.61 0 0 0 87.14 7.3 75.278 75.278 0 0 0 11.406-10.95l270.546 224.01a66.61 66.61 0 0 0 13.231 86.228 67.979 67.979 0 0 0 93.528-11.406 66.61 66.61 0 0 0-7.756-94.44 67.522 67.522 0 0 0-87.597 3.194L576.719 91.62a68.891 68.891 0 0 0-9.124-65.698 66.61 66.61 0 0 0-93.071-12.318 67.522 67.522 0 0 0-17.794 85.772L172.954 313.349a66.154 66.154 0 0 0-87.14-7.3 67.979 67.979 0 0 0-11.863 94.896z" p-id="4705" fill="#dbdbdb"></path><path d="M73.039 693.846a66.61 66.61 0 0 0 93.528 14.6 67.066 67.066 0 0 0 17.793-85.772L469.96 408.701a66.61 66.61 0 0 0 87.14 7.3 78.016 78.016 0 0 0 11.406-10.95l266.44 223.554a66.154 66.154 0 0 0 13.23 86.228 67.979 67.979 0 0 0 94.897-10.037 66.61 66.61 0 0 0-7.756-94.44 67.522 67.522 0 0 0-87.596 2.737l-273.74-228.116a68.891 68.891 0 0 0-6.387-65.241 66.61 66.61 0 0 0-93.528-14.6 67.522 67.522 0 0 0-17.793 87.14L172.498 606.25a66.154 66.154 0 0 0-86.685-6.844 67.522 67.522 0 0 0-12.774 94.44z" p-id="4706" fill="#dbdbdb"></path><path d="M947.637 329.317a66.61 66.61 0 0 0-91.247-14.6 67.066 67.066 0 0 0-21.443 86.228L551.171 614.918a66.61 66.61 0 0 0-87.14-7.3 64.785 64.785 0 0 0-10.95 10.95l-269.178-224.01a66.154 66.154 0 0 0-13.23-86.228 67.979 67.979 0 0 0-94.897 11.406 66.61 66.61 0 0 0 7.3 91.246 67.522 67.522 0 0 0 87.597 0L444.413 639.1a68.891 68.891 0 0 0 9.124 65.697 66.154 66.154 0 0 0 111.32-71.172L848.635 419.65a66.61 66.61 0 0 0 86.684 6.843 67.522 67.522 0 0 0 12.319-97.177z" p-id="4707" fill="#dbdbdb"></path><path d="M948.093 622.218a66.154 66.154 0 0 0-113.146 71.172L551.171 907.363a66.61 66.61 0 0 0-87.14-7.3 73.91 73.91 0 0 0-10.95 10.95l-269.178-224.01a66.154 66.154 0 0 0-13.23-86.228 67.979 67.979 0 0 0-94.897 10.037 66.61 66.61 0 0 0 7.756 94.44 67.522 67.522 0 0 0 87.597-2.737l273.74 228.116a68.891 68.891 0 0 0 9.124 65.698 66.154 66.154 0 0 0 111.32-71.173L849.09 711.183a66.61 66.61 0 0 0 87.14 7.3 67.979 67.979 0 0 0 11.863-96.265z" p-id="4708" fill="#dbdbdb"></path></svg>