<?xml version="1.0" standalone="no"?><!DOCTYPE svg PUBLIC "-//W3C//DTD SVG 1.1//EN" "http://www.w3.org/Graphics/SVG/1.1/DTD/svg11.dtd"><svg t="1600088237044" class="icon" viewBox="0 0 1024 1024" version="1.1" xmlns="http://www.w3.org/2000/svg" p-id="4370" xmlns:xlink="http://www.w3.org/1999/xlink" width="128" height="128"><defs><style type="text/css"></style></defs><path d="M268.288 958.976c-107.52 0-194.56-87.552-194.56-194.56s87.552-194.56 194.56-194.56 194.56 87.552 194.56 194.56-87.552 194.56-194.56 194.56zM300.032 364.032c-82.432 0-149.504-67.072-149.504-149.504s67.072-149.504 149.504-149.504 149.504 67.072 149.504 149.504-67.072 149.504-149.504 149.504zM812.032 850.944c-76.288 0-138.24-61.952-138.24-138.24s61.952-138.24 138.24-138.24 138.24 61.952 138.24 138.24-61.952 138.24-138.24 138.24zM551.424 615.424c-77.824 0-141.312-63.488-141.312-141.312S473.6 332.8 551.424 332.8s141.312 63.488 141.312 141.312-63.488 141.312-141.312 141.312zM784.384 365.056c-64 0-116.224-52.224-116.224-116.224s52.224-116.224 116.224-116.224 116.224 52.224 116.224 116.224-51.712 116.224-116.224 116.224z" fill="#dbdbdb" p-id="4371"></path><path d="M399.872 658.432c-4.096 0-8.192-1.536-11.264-4.608-6.144-6.144-6.144-16.384 0-22.528l65.536-65.536c6.144-6.144 16.384-6.144 22.528 0 6.144 6.144 6.144 16.384 0 22.528l-65.536 65.536c-3.072 3.072-7.168 4.608-11.264 4.608z m250.88-250.88c-4.096 0-8.192-1.536-11.264-4.608-6.144-6.144-6.144-16.384 0-22.528l64-64c6.144-6.144 16.384-6.144 22.528 0 6.144 6.144 6.144 16.384 0 22.528l-64 64c-2.56 3.584-7.168 4.608-11.264 4.608z m-184.32-11.776c-4.096 0-8.192-1.536-11.264-4.608L386.048 321.536c-6.144-6.144-6.144-16.384 0-22.528 6.144-6.144 16.384-6.144 22.528 0L477.696 368.64c6.144 6.144 6.144 16.384 0 22.528-3.072 3.072-7.168 4.608-11.264 4.608z m250.88 250.88c-4.096 0-8.192-1.536-11.264-4.608l-72.704-72.704c-6.144-6.144-6.144-16.384 0-22.528 6.144-6.144 16.384-6.144 22.528 0l72.704 72.704c6.144 6.144 6.144 16.384 0 22.528-3.584 2.56-7.168 4.608-11.264 4.608z" fill="#dbdbdb" p-id="4372"></path></svg>