<?xml version="1.0" standalone="no"?><!DOCTYPE svg PUBLIC "-//W3C//DTD SVG 1.1//EN" "http://www.w3.org/Graphics/SVG/1.1/DTD/svg11.dtd"><svg t="1600088167022" class="icon" viewBox="0 0 1024 1024" version="1.1" xmlns="http://www.w3.org/2000/svg" p-id="2801" xmlns:xlink="http://www.w3.org/1999/xlink" width="128" height="128"><defs><style type="text/css"></style></defs><path d="M752 864.00000031H272c-60 0-112.00000031-48-112.00000031-112.00000031V272c0-60 48-112.00000031 112.00000031-112.00000031h480c60 0 112.00000031 48 112.00000031 112.00000031v480c0 60-52.00000031 112.00000031-112.00000031 112.00000031zM272 224c-28.00000031 0-48 19.99999969-48 48v480c0 28.00000031 24 48 48 48h480c28.00000031 0 48-24 48-48V272c0-28.00000031-24-48-48-48H272z" p-id="2802" fill="#dbdbdb"></path><path d="M632 663.99999969H392c-16.00000031 0-31.99999969-12-31.99999969-31.99999969V392c0-16.00000031 12-31.99999969 31.99999969-31.99999969h240c16.00000031 0 31.99999969 12 31.99999969 31.99999969v240c0 16.00000031-16.00000031 31.99999969-31.99999969 31.99999969z m-208.00000031-63.99999938h180V423.99999969H423.99999969v176.00000062zM392 224c-16.00000031 0-31.99999969-16.00000031-31.99999969-31.99999969V72.00000031c0-16.00000031 12-31.99999969 31.99999969-32.00000062s31.99999969 16.00000031 31.99999969 32.00000062v120c0 16.00000031-16.00000031 31.99999969-31.99999969 31.99999969zM632 224c-16.00000031 0-31.99999969-12-31.99999969-31.99999969V72.00000031c0-16.00000031 12-31.99999969 31.99999969-32.00000062s31.99999969 12 31.99999969 32.00000062v120c0 16.00000031-16.00000031 31.99999969-31.99999969 31.99999969zM392 984.00000031c-16.00000031 0-31.99999969-12-31.99999969-32.00000062v-120c0-16.00000031 12-31.99999969 31.99999969-31.99999969s31.99999969 12 31.99999969 31.99999969v120c0 16.00000031-16.00000031 31.99999969-31.99999969 32.00000062zM632 984.00000031c-16.00000031 0-31.99999969-12-31.99999969-32.00000062v-120c0-16.00000031 12-31.99999969 31.99999969-31.99999969s31.99999969 12 31.99999969 31.99999969v120c0 16.00000031-16.00000031 31.99999969-31.99999969 32.00000062zM951.99999969 423.99999969h-120c-16.00000031 0-31.99999969-12-31.99999969-31.99999969s12-31.99999969 31.99999969-31.99999969h120c16.00000031 0 31.99999969 12 32.00000062 31.99999969s-16.00000031 31.99999969-32.00000062 31.99999969zM951.99999969 624.00000031h-120c-16.00000031 0-31.99999969-12-31.99999969-32.00000062s12-31.99999969 31.99999969-31.99999969h120c16.00000031 0 31.99999969 12 32.00000062 31.99999969s-16.00000031 31.99999969-32.00000062 32.00000062zM192.00000031 423.99999969H72.00000031C56 423.99999969 39.99999969 408.00000031 39.99999969 392s16.00000031-31.99999969 32.00000062-31.99999969h120c16.00000031 0 31.99999969 12 31.99999969 31.99999969s-16.00000031 31.99999969-31.99999969 31.99999969zM192.00000031 624.00000031H72.00000031c-16.00000031 0-31.99999969-12-32.00000062-32.00000062s12-31.99999969 32.00000062-31.99999969h120c16.00000031 0 31.99999969 12 31.99999969 31.99999969s-16.00000031 31.99999969-31.99999969 32.00000062z" p-id="2803" fill="#dbdbdb"></path></svg>