<?xml version="1.0" standalone="no"?><!DOCTYPE svg PUBLIC "-//W3C//DTD SVG 1.1//EN" "http://www.w3.org/Graphics/SVG/1.1/DTD/svg11.dtd"><svg t="1598671207987" class="icon" viewBox="0 0 1117 1024" version="1.1" xmlns="http://www.w3.org/2000/svg" p-id="3445" xmlns:xlink="http://www.w3.org/1999/xlink" width="139.625" height="128"><defs><style type="text/css"></style></defs><path d="M1063.507006 330.031439c15.11985 13.86374 28.09966 33.775419 37.311138 59.688517 22.191288 62.805532 19.492976 110.2586 0.651316 148.12801-11.118905 22.377378-27.634434 40.381631-47.685681 55.594526a122.121867 122.121867 0 0 1 20.562996 28.750977c12.188925 23.633489 11.351518 58.758064 2.930925 93.091755-8.513639 34.938485-25.261781 71.179603-43.545169 92.393915-40.474676 47.220455-88.392971 79.228015-141.010049 89.649082a191.673179 191.673179 0 0 1-45.917822 3.489196l10.514111 59.641994c1.256111 6.978392 13.258946 45.452596-21.353881 59.548949-34.566304 14.096353-62.665964-18.84166-66.15516-22.982173l-125.8902-150.686754c-21.86563 7.583186-42.242535 9.583659-60.665491 3.814855a72.621804 72.621804 0 0 1-39.12552-29.914042c-13.119378 10.979337-26.378323 17.911207-44.847802 19.399931-38.892907 3.02397-74.901412-1.535246-106.211133-12.468061-33.124103-11.630654-61.130718-30.611881-81.879804-55.548004-18.14382-21.86563-24.796554-43.312556-30.007088-68.341723a254.571756 254.571756 0 0 1-42.102968 14.515056c-22.93565 5.582714-46.848274 7.536664-69.318698 3.396151a116.260018 116.260018 0 0 1-79.646718-57.129773 113.28257 113.28257 0 0 1-10.700202-26.378323c-32.565831-23.726534-53.966235-56.385411-66.294728-92.952187-12.09588-35.868937-15.352463-75.366638-11.7237-113.515184 3.582241-37.729842 13.86374-74.389663 28.844023-105.048067 16.050303-32.798444 37.683319-59.269813 62.898577-74.110528 21.028223-62.06117 54.384938-105.97852 96.860086-136.590401 41.684264-30.05361 91.603031-46.522616 146.639287-54.338415a257.967907 257.967907 0 0 1 84.252457-45.592164c61.456376-20.09777 139.102622-22.796082 226.983845 4.28008 15.352463 4.698784 30.100133 9.025388 44.847802 13.258946 86.345976 25.029167 171.203228 49.593109 243.080669 119.237465l10.421066 9.95584c36.938957 35.078053 75.134025 71.365693 94.394388 152.03591 8.00189 3.9079 15.678122 9.118433 22.842605 15.724644z m-125.657587 70.714377a22.191288 22.191288 0 0 1-33.728896 3.954422 29.448816 29.448816 0 0 1-3.489197-38.008977c12.188925-16.88771 26.657459-28.844022 42.056445-35.775892 4.140513-1.860905 8.374071-3.349628 12.700675-4.466171-15.352463-45.406073-40.939902-69.644356-65.689934-93.184801l-9.76975-9.351045c-57.874135-56.059752-130.356371-77.041452-204.14124-98.395334-14.142875-4.09399-28.332273-8.234503-42.009922-12.421538-71.551784-22.005197-133.892089-20.144293-182.694314-4.187036a193.999309 193.999309 0 0 0-60.805059 32.00756 24.656987 24.656987 0 0 1-10.188453 8.932343c-15.631599 14.840715-26.517891 31.681902-32.00756 49.08136-4.419649 14.096353-18.14382 21.493449-30.611881 16.515528-12.561106-4.97792-19.074273-20.423428-14.701147-34.519781 1.628292-5.117488 3.535719-10.14193 5.722282-15.11985-20.9817 6.978392-40.242063 16.329438-57.315863 28.657932a183.299108 183.299108 0 0 0-57.874135 69.970014l1.256111 0.232613c13.119378 2.326131 22.05172 16.18987 19.958202 30.891018-2.093518 14.747669-14.375488 24.796554-27.448343 22.470423a49.220928 49.220928 0 0 0-13.026333-0.604794 32.844967 32.844967 0 0 0-10.002362 2.326131c-16.562051 7.11796-31.728424 25.122213-43.359079 48.941792a224.099442 224.099442 0 0 0-20.935177 76.250568c-2.512221 27.02964-0.372181 54.710597 7.955367 79.414106 4.652262 13.724172 11.304996 26.610936 20.097771 37.915932l1.209588-3.070493c5.582714-13.584604 19.725589-19.539499 31.821469-13.35199 12.002835 6.187508 17.306413 22.237811 11.816745 35.822414-1.907427 4.652262-3.163538 9.211478-3.814855 13.631127-0.418704 2.977447-0.558271 6.04794-0.465226 9.025387 0.697839 2.512221 1.07002 5.117488 1.07002 7.8158 0.930452 4.373126 2.558744 8.560161 4.745307 12.375015 5.210533 9.351046 13.491559 17.0738 23.400876 22.191288 5.396623 2.791357 11.072383 4.652262 16.88771 5.768805 14.189398 2.605267 30.100133 1.209588 45.917822-2.651789 20.051248-4.931397 39.358133-13.491559 54.710596-22.74956 11.630654-6.978392 26.192233-2.000472 32.426264 11.165428a27.820524 27.820524 0 0 1 2.186563 6.513167h0.046522c1.163065 5.536191 2.326131 11.630654 3.396151 17.445981 4.187035 22.098243 7.536664 39.776837 18.702092 53.221872 13.1659 15.817689 31.867992 28.239228 54.571029 36.194596 23.214785 8.141458 50.337471 11.491086 80.158467 9.118433 10.514111-0.790884 20.469951-10.979337 35.124576-26.052665l0.697839-0.744362a22.191288 22.191288 0 0 1 33.96151 1.814382 27.820524 27.820524 0 0 1 5.257055 10.467588c4.419649 15.724644 10.653679 23.773057 18.143821 26.145711 9.95584 3.117015 24.052193-0.279136 40.800334-7.908845a22.191288 22.191288 0 0 1 26.517891 6.699257l117.050903 140.033074 3.117015-0.744362-8.606684-48.848747a237.265342 237.265342 0 0 1-49.313973-23.028695c-11.723699-7.071438-16.050303-23.493921-9.76975-36.613298 6.234031-13.1659 20.795609-18.14382 32.519309-11.02586 39.078998 23.726534 76.576226 30.379268 111.189053 23.540443 37.962455-7.536664 73.040507-31.309721 103.280208-66.527341 11.630654-13.491559 22.470424-37.776364 28.425318-61.875079 4.652262-18.888182 6.140985-36.055028 2.000473-44.149963a57.222818 57.222818 0 0 0-3.256584-5.582714l-0.837407-1.395679a58.618496 58.618496 0 0 0-27.076162-20.795609 22.842605 22.842605 0 0 1-4.419649-1.628292c-23.959147-7.908845-55.501481-6.001417-89.09081 1.628292-58.292838 13.1659-121.237938 43.824304-165.434423 72.575281a352.734476 352.734476 0 0 0-31.309721 22.703037c-10.607156 8.839297-25.587439 6.280553-33.449761-5.722282a29.216203 29.216203 0 0 1 5.070966-37.683319c10.234976-8.513639 22.330856-17.399458 35.636324-26.052665 47.685682-31.12363 116.12045-64.294256 180.135569-78.762789 37.915932-8.606684 74.622276-10.607156 105.745907-2.14004 23.819579-13.1659 42.986897-28.378796 52.849692-48.243953 10.374543-20.842132 11.072383-49.313973-3.256583-89.78865-5.257056-14.794192-12.188925-25.727007-20.051248-32.891489a38.985952 38.985952 0 0 0-17.678594-9.537137l-0.930452-0.18609a32.89149 32.89149 0 0 0-19.260363 2.698312c-7.908845 3.535719-15.585076 10.095408-22.516947 19.632544z" p-id="3446" fill="#ffffff"></path></svg>