<?xml version="1.0" standalone="no"?><!DOCTYPE svg PUBLIC "-//W3C//DTD SVG 1.1//EN" "http://www.w3.org/Graphics/SVG/1.1/DTD/svg11.dtd"><svg t="1599972669934" class="icon" viewBox="0 0 1024 1024" version="1.1" xmlns="http://www.w3.org/2000/svg" p-id="7384" xmlns:xlink="http://www.w3.org/1999/xlink" width="128" height="128"><defs><style type="text/css"></style></defs><path d="M761.4 746.7H359.9c-9.2 0-16.7-7.2-17.1-16.3-4.1-85 30.6-124.4 61.2-159.2 6-6.8 11.7-13.3 17.1-20.1 10.4-13 16.3-27 17.4-41.5 0.4-5.7-3.4-8.4-5.1-9.2-1.6-0.8-5.7-2.4-9.7 0.9-16.9 13.6-27 28.7-37.7 44.7-11 16.4-22.3 33.3-41.1 49.6-23.5 20.3-43.3 19.3-55.8 14.9-16.4-5.8-28.7-21-36.2-37.8-27.2 14.4-56.2 16.3-80.7 4.5-24.6-11.9-39.9-35.9-39.9-62.9 0-58.5 54.1-146.4 97.6-217 22.8-37 44.3-71.9 48-87.2 11.3-46.1 12.1-57.8-3.2-101.7-1.8-5.2-1-11 2.1-15.5 3.2-4.5 8.3-7.2 13.8-7.3 68.4-0.7 131.2 40 160.7 60C463 118 485 73.3 503.1 65.8c1-0.4 2-0.7 3-0.9 8.3-1.7 21.6-1.4 37.9 9.7 29.4 20 55.8 65.6 66.2 113.3C805 269.2 786 597.1 779.7 705.9c-0.6 9.9-1 18-1.3 24.1-0.2 9.4-7.7 16.7-17 16.7z m-384.7-34.3h368.4c0.1-2.6 0.3-5.4 0.5-8.4 6-104.2 24.4-421.4-156.1-487.4-5.8-2.1-10-7.2-11-13.2-8.1-47-33.6-86.8-53.6-100.4-3.8-2.6-7-3.9-9.1-4.4-11.3 12.2-36.1 63.9-39.1 76.3-1.2 4.8-4.4 8.9-8.9 11.2-10.2 5.2-17.5 0.2-32.2-9.8-21.8-14.9-69-47.1-120.7-54.8 9.4 34.5 6.7 54.5-3.6 96.6-5 20.6-25.8 54.3-52.1 97-39 63.4-92.5 150.2-92.5 199 0 13.9 7.6 25.8 20.4 32 18.6 8.9 42.7 3.8 64.7-13.8 4.7-3.8 11.1-4.8 16.8-2.6 5.7 2.1 9.8 7.1 10.8 13.1 2.5 14.5 11.2 31.6 21.2 35.2 5.7 2 13-0.8 21.8-8.5 15.3-13.3 24.9-27.6 35.1-42.8 11.7-17.4 23.8-35.4 44.7-52.3 13.6-11 31.7-12.7 47.2-4.5 15.8 8.3 24.7 24.5 23.3 42.2-1.7 21.5-10 41.8-24.9 60.3-5.9 7.4-12.1 14.4-18.1 21.2-27.7 31.7-51.9 59.3-53 118.8z" p-id="7385" fill="#dbdbdb"></path><path d="M330.1 437c-11.5 0-21.9-5.7-30-13.8-9.3-9.3-14.2-22.2-14-36 0.2-19.1 10.8-41.6 26.8-56.8 22.7-21.6 44-32.4 63-31.7 12.2 0.4 23 5.4 31.4 14.5 22.1 24.2 14.9 56.6-21.4 93.7-8.4 8.6-30.7 30.1-55.5 30.1h-0.3z m44.2-104c-4.7 0-16.9 2.3-37.7 22-9.4 8.9-16 22-16.1 32-0.1 5.9 2.2 8.9 3.9 10.6s3.3 2.5 5.9 2.4c7.9-0.1 20.4-7.5 31.2-18.5 21.3-21.7 28.2-36.8 20.6-45.1-2.1-2.3-4.3-3.4-7.3-3.4h-0.5z m444.2 519.4H300c-23 0-41.8-18.7-41.8-41.8v-56.5c0-23 18.7-41.8 41.8-41.8h518.5c23 0 41.8 18.7 41.8 41.8v56.5c0 23.1-18.7 41.8-41.8 41.8zM300 746.7c-4.1 0-7.5 3.4-7.5 7.5v56.5c0 4.1 3.4 7.5 7.5 7.5h518.5c4.1 0 7.5-3.4 7.5-7.5v-56.5c0-4.1-3.4-7.5-7.5-7.5H300z" p-id="7386" fill="#dbdbdb"></path><path d="M866.8 958.2H251.7c-23 0-41.8-18.8-41.8-41.8v-56.5c0-23 18.7-41.8 41.8-41.8h615.1c23 0 41.8 18.7 41.8 41.8v56.5c0 23-18.7 41.8-41.8 41.8zM251.7 852.4c-4.1 0-7.5 3.4-7.5 7.5v56.5c0 4.1 3.4 7.5 7.5 7.5h615.1c4.1 0 7.5-3.4 7.5-7.5v-56.5c0-4.1-3.4-7.5-7.5-7.5H251.7zM610 334.7c-7.5 0-14.5-5-16.5-12.6-2.5-9.1 2.9-18.6 12-21.1l77.5-21.2c9.1-2.5 18.6 2.9 21.1 12s-2.9 18.6-12 21.1L614.5 334c-1.5 0.5-3 0.7-4.5 0.7z m32.8 83.8c-7.5 0-14.5-5-16.5-12.6-2.5-9.1 2.9-18.6 12-21.1l77.5-21.2c9.2-2.5 18.6 2.9 21.1 12s-2.9 18.6-12 21.1l-77.5 21.2c-1.5 0.4-3.1 0.6-4.6 0.6z m32.9 92.2c-7.5 0-14.5-5-16.5-12.6-2.5-9.1 2.9-18.6 12-21.1l69.6-19c9.2-2.5 18.6 2.9 21.1 12s-2.9 18.6-12 21.1l-69.6 19c-1.6 0.4-3.1 0.6-4.6 0.6z" p-id="7387" fill="#dbdbdb"></path></svg>