<?xml version="1.0" standalone="no"?><!DOCTYPE svg PUBLIC "-//W3C//DTD SVG 1.1//EN" "http://www.w3.org/Graphics/SVG/1.1/DTD/svg11.dtd"><svg t="1600069522869" class="icon" viewBox="0 0 1024 1024" version="1.1" xmlns="http://www.w3.org/2000/svg" p-id="3420" width="128" height="128" xmlns:xlink="http://www.w3.org/1999/xlink"><defs><style type="text/css"></style></defs><path d="M964.066852 163.915862 197.116726 163.915862 184.834326 106.00344 54.198351 106.00344c-15.57878 0-28.222428 12.643648-28.222428 28.222428s12.643648 28.222428 28.222428 28.222428l84.915641 0 123.523923 582.488336 549.660008 0c15.57878 0 28.222428-12.643648 28.222428-28.222428 0-15.57878-12.643648-28.222428-28.222428-28.222428L308.358248 688.491776l-25.084094-118.28584 574.992459-9.708515L964.066852 163.915862zM593.472505 220.360718l122.778851 0 0 286.085108-122.778851 2.077171L593.472505 220.360718zM537.027649 509.47127l-123.99806 2.099749L413.029589 220.360718l123.99806 0L537.027649 509.47127zM209.083036 220.360718l147.47912 0 0 292.158575-85.231733 1.444988L209.083036 220.360718zM772.696212 505.497553 772.696212 220.360718l117.902015 0-75.861886 284.436918L772.696212 505.497553zM341.028531 808.019403c-48.384531 0-87.760462 39.353354-87.760462 87.737884s39.375932 87.760462 87.760462 87.760462 87.760462-39.375932 87.760462-87.760462S389.413062 808.019403 341.028531 808.019403zM341.028531 927.072893c-17.272126 0-31.315606-14.04348-31.315606-31.315606 0-17.249548 14.04348-31.293028 31.315606-31.293028s31.315606 14.04348 31.315606 31.293028C372.344137 913.006835 358.300657 927.072893 341.028531 927.072893zM749.305464 808.019403c-48.384531 0-87.760462 39.353354-87.760462 87.737884s39.375932 87.760462 87.760462 87.760462 87.760462-39.375932 87.760462-87.760462S797.689994 808.019403 749.305464 808.019403zM749.305464 927.072893c-17.272126 0-31.315606-14.04348-31.315606-31.315606 0-17.249548 14.04348-31.293028 31.315606-31.293028s31.315606 14.04348 31.315606 31.293028C780.62107 913.006835 766.57759 927.072893 749.305464 927.072893z" p-id="3421" fill="#e6e6e6"></path></svg>